<?xml version="1.0" encoding="utf-8"?>
<!-- Generator: Adobe Illustrator 15.0.2, SVG Export Plug-In . SVG Version: 6.00 Build 0)  -->
<!DOCTYPE svg PUBLIC "-//W3C//DTD SVG 1.1//EN" "http://www.w3.org/Graphics/SVG/1.1/DTD/svg11.dtd">
<svg version="1.1" id="Layer_1" xmlns="http://www.w3.org/2000/svg" xmlns:xlink="http://www.w3.org/1999/xlink" x="0px" y="0px"
	 width="64px" height="36px" viewBox="0 0 64 36" enable-background="new 0 0 64 36" xml:space="preserve">
<g>
	<g>
		<defs>
			<rect id="SVGID_1_" width="64" height="35.408"/>
		</defs>
		<clipPath id="SVGID_2_">
			<use xlink:href="#SVGID_1_"  overflow="visible"/>
		</clipPath>
		<path clip-path="url(#SVGID_2_)" fill="#FDE700" d="M27.148,15.29c-1.197,0-2.006-0.605-2.125-1.452h-0.659l0.097,1.95h0.512
			c0.028-0.215,0.101-0.349,0.251-0.349c0.154,0,0.71,0.5,2.028,0.5c1.164,0,2.48-0.5,2.48-1.847c0-1.55-1.42-1.797-2.584-1.848
			c-0.505-0.05-1.62-0.05-1.62-0.75c0-0.449,0.506-0.749,1.369-0.749c1.062,0,1.923,0.549,2.073,1.346h0.61l-0.1-1.837h-0.56
			c0,0.147-0.038,0.292-0.151,0.292c-0.304,0-0.758-0.45-2.025-0.45c-1.063,0-2.38,0.548-2.38,1.798
			c0,1.448,1.367,1.598,2.431,1.699c0.556,0.048,1.822-0.051,1.822,0.748C28.618,14.79,28.163,15.29,27.148,15.29"/>
		<path clip-path="url(#SVGID_2_)" fill="#FDE700" d="M46.938,15.139h-0.405c-0.305,0-0.457-0.048-0.457-0.399v-3.546
			c0-0.099,0.064-0.098,0.102,0l1.671,4.593h0.964l1.721-4.593c0.035-0.103,0.101-0.098,0.101,0v3.546
			c0,0.352-0.151,0.399-0.407,0.399h-0.454v0.647h3.449v-0.647c-0.48-0.055-1.119-0.1-1.119-0.699v-2.848
			c0-0.599,0.485-0.587,1.116-0.697v-0.652h-3.142l-1.419,3.848l-1.314-3.848h-3.141v0.651c0.455,0.099,1.115,0.05,1.115,0.649
			v2.896c0,0.599-0.606,0.651-1.115,0.699v0.647h2.735V15.139z"/>
		<path clip-path="url(#SVGID_2_)" fill="#FDE700" d="M11.546,24.037h-0.977c-0.162,0-0.238-0.045-0.238-0.174v-1.634h1.268
			c0.507,0,1.165,0.099,1.165,0.847C12.763,23.838,12.198,24.037,11.546,24.037 M10.331,20.096c0-0.15,0-0.25,0.205-0.25h1.062
			c0.557,0,0.911,0.291,0.911,0.791c0,0.648-0.507,0.898-1.012,0.898h-1.167V20.096z M12.714,21.832
			c0.605-0.1,1.264-0.501,1.264-1.199c0-0.998-0.809-1.445-1.772-1.445H7.751v0.646c0.638,0.103,1.114,0.139,1.114,0.65v2.928
			c0,0.195,0.008,0.588-1.112,0.665v0.649h4.047c1.116,0,2.482-0.148,2.482-1.548C14.283,22.279,13.576,21.881,12.714,21.832"/>
		<path clip-path="url(#SVGID_2_)" fill="#FDE700" d="M43.143,13.839h-0.657c-0.151,0.652-0.302,1.252-1.265,1.252h-1.063
			c-0.254,0-0.254-0.052-0.254-0.151v-1.598h0.71c0.607,0,0.607,0.6,0.607,0.897h0.655v-2.495h-0.655c0,0.198,0,0.897-0.559,0.897
			h-0.759v-1.549c0-0.148,0.05-0.199,0.254-0.199h1.063c0.963,0,1.113,0.499,1.215,1.199h0.658l-0.102-1.848H37.32v0.648
			c0.463,0.062,1.111,0.112,1.115,0.649v2.897c0,0.55-0.406,0.599-1.115,0.699v0.647h5.721L43.143,13.839z"/>
		<path clip-path="url(#SVGID_2_)" fill="#FDE700" d="M13.692,15.29c-1.199,0-2.008-0.605-2.125-1.452h-0.661l0.099,1.95h0.509
			c0.029-0.215,0.103-0.349,0.253-0.349c0.153,0,0.709,0.5,2.027,0.5c1.163,0,2.478-0.5,2.478-1.847c0-1.55-1.417-1.797-2.581-1.848
			c-0.507-0.05-1.622-0.05-1.622-0.75c0-0.449,0.508-0.749,1.369-0.749c1.064,0,1.924,0.549,2.075,1.346h0.607l-0.096-1.837h-0.563
			c0,0.147-0.035,0.292-0.15,0.292c-0.303,0-0.761-0.45-2.026-0.45c-1.062,0-2.38,0.548-2.38,1.798c0,1.448,1.369,1.598,2.431,1.699
			c0.556,0.048,1.822-0.051,1.822,0.748C15.159,14.79,14.704,15.29,13.692,15.29"/>
		<path clip-path="url(#SVGID_2_)" fill="#FDE700" d="M56.512,19.188h-5.873l-0.103,1.844h0.602c0.13-0.648,0.299-1.199,1.271-1.199
			h0.43v3.547c0,0.551-0.326,0.6-1.086,0.701v0.653h3.646V24.08c-0.709-0.102-1.092-0.15-1.092-0.701v-3.547h0.42
			c0.643,0,1.116,0.164,1.283,1.199h0.603L56.512,19.188z"/>
		<path clip-path="url(#SVGID_2_)" fill="#FDE700" d="M18.52,24.18c-1.013,0-1.824-0.699-1.824-2.197
			c0-1.499,0.811-2.301,1.824-2.301c1.062,0,1.874,0.852,1.874,2.301C20.393,23.541,19.582,24.18,18.52,24.18 M18.52,19.034
			c-1.926,0-3.394,1.048-3.394,2.949c0,1.997,1.521,2.908,3.394,2.908c1.923,0,3.443-0.911,3.443-2.908
			C21.962,20.082,20.443,19.034,18.52,19.034"/>
		<path clip-path="url(#SVGID_2_)" fill="#FDE700" d="M40.045,22.68H40.4c0.354,0,0.656,0.101,0.656,0.551
			c0,0.447-0.527,0.948-1.313,0.948c-1.063,0-2.026-0.698-2.026-2.196c0-1.451,0.91-2.299,1.975-2.299c0.962,0,1.72,0.4,1.872,1.348
			h0.66v-1.846h-0.66c0,0.215-0.069,0.299-0.152,0.299c-0.253,0-0.858-0.449-2.022-0.449c-1.621,0-3.242,1.097-3.242,2.947
			c0,1.947,1.723,2.907,3.242,2.907c1.416,0,1.859-0.536,2.104-0.536c0.164,0,0.227,0.189,0.227,0.373h0.604V23.33
			c0-0.55,0.406-0.65,0.913-0.65v-0.697h-3.19V22.68z"/>
		<path clip-path="url(#SVGID_2_)" fill="#FDE700" d="M47.645,24.034H46.58c-0.209,0-0.254-0.06-0.254-0.185v-1.564h0.709
			c0.609,0,0.609,0.601,0.609,0.9h0.658v-2.498h-0.658c0,0.199,0,0.898-0.558,0.898h-0.761v-1.547c0-0.15,0.051-0.2,0.254-0.2h1.064
			c0.959,0,1.113,0.497,1.214,1.198h0.659l-0.102-1.848h-5.67v0.649c0.462,0.06,1.111,0.11,1.113,0.649v2.896
			c0,0.549-0.406,0.599-1.113,0.701v0.648h5.72l0.1-1.949h-0.653C48.758,23.436,48.604,24.034,47.645,24.034"/>
		<path clip-path="url(#SVGID_2_)" fill="#FDE700" d="M36.541,10.245h-5.873l-0.101,1.847h0.602c0.129-0.649,0.3-1.198,1.272-1.198
			h0.43v3.546c0,0.549-0.329,0.601-1.087,0.699v0.649h3.644v-0.649c-0.707-0.099-1.088-0.15-1.088-0.699v-3.546h0.419
			c0.644,0,1.113,0.164,1.281,1.198h0.603L36.541,10.245z"/>
		<path clip-path="url(#SVGID_2_)" fill="#FDE700" d="M21.048,14.44v-0.999l1.619-2.099c0.253-0.298,0.462-0.398,1.013-0.398v-0.699
			h-2.581v0.699c0.691-0.002,0.82,0.113,0.509,0.539c0,0-0.718,0.899-0.812,1.008c-0.042,0.066-0.09,0.08-0.152,0
			c-0.349-0.461-0.81-1.048-0.81-1.048c-0.395-0.46,0.049-0.499,0.506-0.499v-0.699h-3.442v0.699
			c0.614-0.001,0.826,0.101,1.013,0.35l1.671,2.147v0.999c0,0.58-0.418,0.599-1.076,0.698v0.65h3.632v-0.65
			C21.528,15.026,21.048,15.026,21.048,14.44"/>
		<path clip-path="url(#SVGID_2_)" fill="#FDE700" d="M26.187,24.029h-0.82c-0.202,0-0.254-0.05-0.254-0.15v-3.346
			c0-0.4,0.254-0.601,1.117-0.699v-0.648h-3.711v0.658c0.618,0.055,1.112,0.174,1.112,0.64v2.897c0,0.548-0.405,0.599-1.112,0.697
			v0.648h5.442l0.1-1.947h-0.606C27.252,23.529,27.148,24.029,26.187,24.029"/>
		<path clip-path="url(#SVGID_2_)" fill="#FDE700" d="M31.143,22.58l0.892-2.232c0.051-0.148,0.149-0.148,0.202,0l0.884,2.232
			H31.143z M34.975,23.529l-1.899-4.342h-1.341l-1.924,4.342c-0.153,0.316-0.246,0.469-1.113,0.551v0.646h2.631V24.08h-0.456
			c-0.253,0-0.303-0.102-0.253-0.252l0.238-0.598h2.556l0.234,0.598c0.029,0.088,0.055,0.26-0.225,0.26h-0.486l0.002,0.639h3.097
			v-0.699C35.277,24.027,35.074,23.729,34.975,23.529"/>
	</g>
	<g>
		<polygon fill="#0AA64C" points="7.736,35.408 0,26.936 0,8.474 7.736,0 56.267,0 64,8.474 64,26.936 56.267,35.408 		"/>
		<path fill="#FDE700" d="M60.606,25.648l-5.852,6.41H9.249l-5.853-6.41V9.76l5.852-6.41h45.508l5.852,6.41V25.648z M55.522,1.647
			H8.479L1.671,9.105v17.197l6.809,7.459h47.043l6.808-7.459V9.105L55.522,1.647z"/>
	</g>
	<g>
		<defs>
			<rect id="SVGID_3_" width="64" height="35.408"/>
		</defs>
		<clipPath id="SVGID_4_">
			<use xlink:href="#SVGID_3_"  overflow="visible"/>
		</clipPath>
		<path clip-path="url(#SVGID_4_)" fill="#FDE700" d="M27.148,15.29c-1.197,0-2.006-0.605-2.125-1.452h-0.659l0.097,1.95h0.512
			c0.028-0.215,0.101-0.349,0.251-0.349c0.154,0,0.71,0.5,2.028,0.5c1.164,0,2.48-0.5,2.48-1.847c0-1.55-1.42-1.797-2.584-1.848
			c-0.505-0.05-1.62-0.05-1.62-0.75c0-0.449,0.506-0.749,1.369-0.749c1.062,0,1.923,0.549,2.073,1.346h0.61l-0.1-1.837h-0.56
			c0,0.147-0.038,0.292-0.151,0.292c-0.304,0-0.758-0.45-2.025-0.45c-1.063,0-2.38,0.548-2.38,1.798
			c0,1.448,1.367,1.598,2.431,1.699c0.556,0.048,1.822-0.051,1.822,0.748C28.618,14.79,28.163,15.29,27.148,15.29"/>
		<path clip-path="url(#SVGID_4_)" fill="#FDE700" d="M46.938,15.139h-0.405c-0.305,0-0.457-0.048-0.457-0.399v-3.546
			c0-0.099,0.064-0.098,0.102,0l1.671,4.593h0.964l1.721-4.593c0.035-0.103,0.101-0.098,0.101,0v3.546
			c0,0.352-0.151,0.399-0.407,0.399h-0.454v0.647h3.449v-0.647c-0.48-0.055-1.119-0.1-1.119-0.699v-2.848
			c0-0.599,0.485-0.587,1.116-0.697v-0.652h-3.142l-1.419,3.848l-1.314-3.848h-3.141v0.651c0.455,0.099,1.115,0.05,1.115,0.649
			v2.896c0,0.599-0.606,0.651-1.115,0.699v0.647h2.735V15.139z"/>
		<path clip-path="url(#SVGID_4_)" fill="#FDE700" d="M11.546,24.037h-0.977c-0.162,0-0.238-0.045-0.238-0.174v-1.634h1.268
			c0.507,0,1.165,0.099,1.165,0.847C12.763,23.838,12.198,24.037,11.546,24.037 M10.331,20.096c0-0.15,0-0.25,0.205-0.25h1.062
			c0.557,0,0.911,0.291,0.911,0.791c0,0.648-0.507,0.898-1.012,0.898h-1.167V20.096z M12.714,21.832
			c0.605-0.1,1.264-0.501,1.264-1.199c0-0.998-0.809-1.445-1.772-1.445H7.751v0.646c0.638,0.103,1.114,0.139,1.114,0.65v2.928
			c0,0.195,0.008,0.588-1.112,0.665v0.649h4.047c1.116,0,2.482-0.148,2.482-1.548C14.283,22.279,13.576,21.881,12.714,21.832"/>
		<path clip-path="url(#SVGID_4_)" fill="#FDE700" d="M43.143,13.839h-0.657c-0.151,0.652-0.302,1.252-1.265,1.252h-1.063
			c-0.254,0-0.254-0.052-0.254-0.151v-1.598h0.71c0.607,0,0.607,0.6,0.607,0.897h0.655v-2.495h-0.655c0,0.198,0,0.897-0.559,0.897
			h-0.759v-1.549c0-0.148,0.05-0.199,0.254-0.199h1.063c0.963,0,1.113,0.499,1.215,1.199h0.658l-0.102-1.848H37.32v0.648
			c0.463,0.062,1.111,0.112,1.115,0.649v2.897c0,0.55-0.406,0.599-1.115,0.699v0.647h5.721L43.143,13.839z"/>
		<path clip-path="url(#SVGID_4_)" fill="#FDE700" d="M13.692,15.29c-1.199,0-2.008-0.605-2.125-1.452h-0.661l0.099,1.95h0.509
			c0.029-0.215,0.103-0.349,0.253-0.349c0.153,0,0.709,0.5,2.027,0.5c1.163,0,2.478-0.5,2.478-1.847c0-1.55-1.417-1.797-2.581-1.848
			c-0.507-0.05-1.622-0.05-1.622-0.75c0-0.449,0.508-0.749,1.369-0.749c1.064,0,1.924,0.549,2.075,1.346h0.607l-0.096-1.837h-0.563
			c0,0.147-0.035,0.292-0.15,0.292c-0.303,0-0.761-0.45-2.026-0.45c-1.062,0-2.38,0.548-2.38,1.798c0,1.448,1.369,1.598,2.431,1.699
			c0.556,0.048,1.822-0.051,1.822,0.748C15.159,14.79,14.704,15.29,13.692,15.29"/>
		<path clip-path="url(#SVGID_4_)" fill="#FDE700" d="M56.512,19.188h-5.873l-0.103,1.844h0.602c0.13-0.648,0.299-1.199,1.271-1.199
			h0.43v3.547c0,0.551-0.326,0.6-1.086,0.701v0.653h3.646V24.08c-0.709-0.102-1.092-0.15-1.092-0.701v-3.547h0.42
			c0.643,0,1.116,0.164,1.283,1.199h0.603L56.512,19.188z"/>
		<path clip-path="url(#SVGID_4_)" fill="#FDE700" d="M18.52,24.18c-1.013,0-1.824-0.699-1.824-2.197
			c0-1.499,0.811-2.301,1.824-2.301c1.062,0,1.874,0.852,1.874,2.301C20.393,23.541,19.582,24.18,18.52,24.18 M18.52,19.034
			c-1.926,0-3.394,1.048-3.394,2.949c0,1.997,1.521,2.908,3.394,2.908c1.923,0,3.443-0.911,3.443-2.908
			C21.962,20.082,20.443,19.034,18.52,19.034"/>
		<path clip-path="url(#SVGID_4_)" fill="#FDE700" d="M40.045,22.68H40.4c0.354,0,0.656,0.101,0.656,0.551
			c0,0.447-0.527,0.948-1.313,0.948c-1.063,0-2.026-0.698-2.026-2.196c0-1.451,0.91-2.299,1.975-2.299c0.962,0,1.72,0.4,1.872,1.348
			h0.66v-1.846h-0.66c0,0.215-0.069,0.299-0.152,0.299c-0.253,0-0.858-0.449-2.022-0.449c-1.621,0-3.242,1.097-3.242,2.947
			c0,1.947,1.723,2.907,3.242,2.907c1.416,0,1.859-0.536,2.104-0.536c0.164,0,0.227,0.189,0.227,0.373h0.604V23.33
			c0-0.55,0.406-0.65,0.913-0.65v-0.697h-3.19V22.68z"/>
		<path clip-path="url(#SVGID_4_)" fill="#FDE700" d="M47.645,24.034H46.58c-0.209,0-0.254-0.06-0.254-0.185v-1.564h0.709
			c0.609,0,0.609,0.601,0.609,0.9h0.658v-2.498h-0.658c0,0.199,0,0.898-0.558,0.898h-0.761v-1.547c0-0.15,0.051-0.2,0.254-0.2h1.064
			c0.959,0,1.113,0.497,1.214,1.198h0.659l-0.102-1.848h-5.67v0.649c0.462,0.06,1.111,0.11,1.113,0.649v2.896
			c0,0.549-0.406,0.599-1.113,0.701v0.648h5.72l0.1-1.949h-0.653C48.758,23.436,48.604,24.034,47.645,24.034"/>
		<path clip-path="url(#SVGID_4_)" fill="#FDE700" d="M36.541,10.245h-5.873l-0.101,1.847h0.602c0.129-0.649,0.3-1.198,1.272-1.198
			h0.43v3.546c0,0.549-0.329,0.601-1.087,0.699v0.649h3.644v-0.649c-0.707-0.099-1.088-0.15-1.088-0.699v-3.546h0.419
			c0.644,0,1.113,0.164,1.281,1.198h0.603L36.541,10.245z"/>
		<path clip-path="url(#SVGID_4_)" fill="#FDE700" d="M21.048,14.44v-0.999l1.619-2.099c0.253-0.298,0.462-0.398,1.013-0.398v-0.699
			h-2.581v0.699c0.691-0.002,0.82,0.113,0.509,0.539c0,0-0.718,0.899-0.812,1.008c-0.042,0.066-0.09,0.08-0.152,0
			c-0.349-0.461-0.81-1.048-0.81-1.048c-0.395-0.46,0.049-0.499,0.506-0.499v-0.699h-3.442v0.699
			c0.614-0.001,0.826,0.101,1.013,0.35l1.671,2.147v0.999c0,0.58-0.418,0.599-1.076,0.698v0.65h3.632v-0.65
			C21.528,15.026,21.048,15.026,21.048,14.44"/>
		<path clip-path="url(#SVGID_4_)" fill="#FDE700" d="M26.187,24.029h-0.82c-0.202,0-0.254-0.05-0.254-0.15v-3.346
			c0-0.4,0.254-0.601,1.117-0.699v-0.648h-3.711v0.658c0.618,0.055,1.112,0.174,1.112,0.64v2.897c0,0.548-0.405,0.599-1.112,0.697
			v0.648h5.442l0.1-1.947h-0.606C27.252,23.529,27.148,24.029,26.187,24.029"/>
		<path clip-path="url(#SVGID_4_)" fill="#FDE700" d="M31.143,22.58l0.892-2.232c0.051-0.148,0.149-0.148,0.202,0l0.884,2.232
			H31.143z M34.975,23.529l-1.899-4.342h-1.341l-1.924,4.342c-0.153,0.316-0.246,0.469-1.113,0.551v0.646h2.631V24.08h-0.456
			c-0.253,0-0.303-0.102-0.253-0.252l0.238-0.598h2.556l0.234,0.598c0.029,0.088,0.055,0.26-0.225,0.26h-0.486l0.002,0.639h3.097
			v-0.699C35.277,24.027,35.074,23.729,34.975,23.529"/>
	</g>
</g>
</svg>
